# xmcd
#
# Track frame offsets: 
#        150
#        15257
#        35174
#        56286
#        75111
#        95298
#        115135
#        135424
#        154512
#        171775
#        192050
#        209097
#        233608
#        253752
#        270652
#        285353
#        303904
#
# Disc length: 4325 seconds
#
# Revision: 1
# Processed by: cddbd v1.5.2PL0 Copyright (c) Steve Scherf et al.
# Submitted via: ExactAudioCopy v1.1
#
DISCID=cc10e311
DTITLE=Various Artist - Best Of best Forever Love 18
DYEAR=1900
DGENRE=Jazz
TTITLE0=Big Big World
TTITLE1=When you Beleive
TTITLE2=My Heart Will Go On
TTITLE3=That's Why you Go away
TTITLE4=I will always love you
TTITLE5=The One you Love
TTITLE6=Because You love Me
TTITLE7=How am I Supposed to live without you
TTITLE8=Eternal Flame
TTITLE9=Right Here Waiting
TTITLE10=The color of the night
TTITLE11=To love you more
TTITLE12=Just one
TTITLE13=Miss you finally
TTITLE14=What will I do
TTITLE15=Everything I do I do it for you
TTITLE16=Don't cry for me argentina
EXTD=
EXTT0=
EXTT1=
EXTT2=
EXTT3=
EXTT4=
EXTT5=
EXTT6=
EXTT7=
EXTT8=
EXTT9=
EXTT10=
EXTT11=
EXTT12=
EXTT13=
EXTT14=
EXTT15=
EXTT16=
PLAYORDER=
